<?xml version="1.0" encoding="UTF-8"?>
<!DOCTYPE svg PUBLIC "-//W3C//DTD SVG 1.1//EN" "http://www.w3.org/Graphics/SVG/1.1/DTD/svg11.dtd">
<!-- Creator: CorelDRAW X8 -->
<svg xmlns="http://www.w3.org/2000/svg" xml:space="preserve" width="210mm" height="297mm" version="1.1" style="shape-rendering:geometricPrecision; text-rendering:geometricPrecision; image-rendering:optimizeQuality; fill-rule:evenodd; clip-rule:evenodd"
viewBox="0 0 21000 29700"
 xmlns:xlink="http://www.w3.org/1999/xlink">
 <defs>
  <style type="text/css">
   <![CDATA[
    .fil0 {fill:#6C8AC8}
   ]]>
  </style>
 </defs>
 <g id="Layer_x0020_1">
  <metadata id="CorelCorpID_0Corel-Layer"/>
  <g>
   <path class="fil0" d="M6255 10950c362,104 395,861 138,1117 -326,286 -456,149 -668,81 -264,-306 -305,-650 -124,-1030 109,-162 406,-286 654,-168zm3031 -1956l881 0c113,0 206,93 206,206l0 211c0,114 -93,207 -206,207l-93 0c-49,117 -186,201 -348,201 -161,0 -298,-84 -348,-201l-92 0c-113,0 -206,-93 -206,-207l0 -211c0,-113 93,-206 206,-206zm2016 -578l-67 75c-9,10 -25,11 -36,2l-397 -352c-11,-9 -12,-25 -3,-36l67 -75c9,-10 25,-12 36,-2l398 352c10,9 11,25 2,36zm-1150 -3362l98 22c14,3 22,17 19,31l-119 517c-3,14 -17,23 -31,19l-98 -22c-13,-3 -22,-17 -19,-31l120 -517c3,-14 17,-22 30,-19zm1032 562l66 75c9,11 8,27 -3,36l-401 348c-11,9 -27,8 -36,-3l-66 -76c-9,-10 -8,-26 3,-36l401 -347c11,-9 27,-8 36,3zm538 1001l15 99c2,14 -8,27 -22,29l-525 80c-13,2 -26,-7 -29,-21l-15 -99c-2,-14 8,-27 22,-29l525 -80c14,-2 27,8 29,21zm26 882l-18 99c-2,14 -16,23 -29,21l-523 -93c-14,-2 -23,-16 -21,-30l18 -98c2,-14 15,-23 29,-21l523 93c14,2 23,16 21,29zm-3534 917l66 75c10,10 26,11 36,2l398 -352c10,-9 11,-25 2,-36l-66 -75c-10,-10 -26,-12 -36,-2l-398 352c-10,9 -11,25 -2,36zm944 -3302l-96 32c-13,4 -20,18 -16,32l165 504c4,14 19,21 32,17l96 -32c13,-4 20,-18 16,-32l-165 -504c-5,-14 -19,-21 -32,-17zm-978 663l-65 76c-9,10 -8,27 2,36l402 347c11,9 27,8 36,-2l66 -76c9,-11 8,-27 -3,-36l-402 -348c-10,-9 -27,-7 -36,3zm-423 887l-15 99c-2,14 8,27 22,29l525 80c13,2 27,-7 29,-21l15 -99c2,-14 -8,-27 -22,-29l-525 -80c-13,-3 -26,7 -29,21zm11 836l18 99c2,13 16,23 29,20l523 -94c14,-2 23,-15 21,-29l-18 -99c-3,-14 -16,-23 -30,-20l-522 93c-14,3 -23,16 -21,30zm1959 -1521c641,0 1161,520 1161,1161 0,738 -421,1099 -537,1434 -70,203 41,190 -217,211l-816 1c-265,-22 -145,-4 -214,-208 -113,-336 -538,-697 -538,-1438 0,-641 520,-1161 1161,-1161zm-694 1277c11,139 84,-11 100,-64 48,-157 138,-559 765,-693 50,-11 10,-53 -69,-61 -451,-50 -839,260 -796,818zm628 5025c303,266 642,313 939,133 178,-107 217,-198 127,-251 -151,-86 -216,38 -407,71 -422,-30 -591,-395 -577,-714 21,-448 334,-775 827,-575 163,30 229,-114 139,-254 -423,-97 -712,-172 -1088,169 -359,326 -345,1082 40,1421zm-1285 -1641c-237,27 -300,181 -329,383 -45,302 -17,726 31,1012 67,401 464,450 796,452 162,2 452,40 432,-308 -246,12 -593,59 -769,-87 -87,-96 -135,-308 -114,-465 338,-38 563,96 635,-313 -116,-11 -507,-10 -657,-6 -8,-88 -7,-245 11,-347 2,-17 23,-28 46,-32 95,-16 256,4 311,3 95,0 373,24 428,-43 24,-40 142,-305 65,-290 -183,34 -698,16 -886,41zm5467 2268l61 -3977 4358 -1235 0 1737c-177,50 -306,213 -306,406 0,192 129,355 306,406l0 279 -315 0 -676 3053 2094 0 -566 -3053 -305 0 0 -279c177,-51 306,-214 306,-406 0,-193 -129,-356 -306,-406l0 -1802 1449 -411 -10531 -3627 -8408 1731 7831 -1010 8552 3030 -4307 1277 41 3689c-695,351 -964,509 -1755,711 -993,252 -2030,427 -3060,336 -648,-57 -688,-26 -1349,-166 -467,-99 -1064,-284 -1467,-533 -164,-101 -426,-410 -532,-579 -192,-403 -377,-374 -101,-500 165,-76 171,-292 173,-368 7,-388 -294,-574 -647,-591 -83,-4 -183,-4 -266,2 -242,16 -470,79 -500,345 -7,391 44,874 -2,1225 -3,95 55,249 317,293 89,15 68,9 66,-82l-11 -562c-2,-110 -16,-108 112,-100 332,24 417,319 531,503 573,929 1783,1352 2813,1495 1333,184 2218,153 3485,-25 372,-52 701,-115 1044,-196l1871 -610zm-2513 -2264c-130,10 -198,150 -194,243 5,85 30,65 99,60 105,-8 234,-14 317,-10 121,6 146,17 153,202 12,346 5,703 -7,949 -5,124 61,248 202,327 234,133 200,62 182,-125 -22,-233 -33,-400 -29,-592 -1,-703 -48,-770 262,-748 88,6 107,24 184,-25 60,-38 104,-90 132,-200 35,-137 16,-101 -115,-99 -344,6 -949,-24 -1186,18zm-3459 158c-9,-159 38,-212 -130,-154l-62 21c-236,88 -159,497 -160,749 0,149 1,300 0,449 -2,210 -22,239 -132,343 -98,48 -195,25 -301,13 -40,-4 -58,-18 -67,20 -62,285 283,276 453,251 179,-47 306,-173 348,-336 64,-231 45,-461 44,-714 0,-123 -1,-247 0,-370l7 -272zm-931 529c-73,-327 -398,-674 -738,-709 -84,-9 -206,-8 -291,-1 -638,54 -840,642 -768,1140 101,490 417,733 844,746 677,20 1017,-544 953,-1176zm-3836 138c-64,120 -349,111 -500,102 -57,-3 -129,-3 -142,-63 -17,-74 -11,-142 -11,-250 0,-60 1,-238 41,-267 111,-111 454,-107 544,-24 112,102 147,324 68,502zm-752 1001c157,14 140,44 129,-99 -11,-144 -25,-359 -7,-426 15,-55 12,-39 33,-70 97,-10 190,29 318,31 133,3 246,-5 355,-54 241,-110 397,-484 264,-921 -163,-196 -218,-217 -462,-275 -381,-90 -832,-60 -868,365 -28,347 -50,725 -36,1067 11,279 -17,335 274,382zm2182 -1036c-140,47 -258,36 -393,23 -148,-14 -174,24 -182,-104 -9,-126 8,-325 28,-344 9,-117 422,-128 569,0 156,118 96,306 -22,425zm623 -3368c-63,112 -30,751 -37,1084 40,681 838,888 1225,566 153,-127 270,-307 275,-549 29,-411 14,-815 12,-1192l-150 13c-309,33 -223,459 -226,765 -6,118 -1,316 -33,471 -40,192 -141,282 -356,328 -121,26 -353,-85 -404,-257 -49,-299 4,-1211 0,-1364 -85,4 -266,50 -306,135zm-625 1167c-90,279 -535,438 -703,277 -33,-66 -8,-812 16,-1120 10,-120 -6,-143 118,-156 659,-69 680,753 569,999zm-853 -1269c-153,-6 -231,165 -227,300l5 175 2 180 21 939c4,149 19,132 85,183 284,150 785,164 1031,-63 591,-521 446,-1639 -493,-1746 -137,-4 -310,34 -424,32zm-830 -1459c220,76 237,285 143,459 -45,82 -117,79 -209,81 -145,2 -307,-39 -339,-161 -39,-227 -48,-343 -6,-391 42,-48 138,-24 411,12zm-268 -295c-240,37 -155,-287 -124,-322 84,-65 214,-44 317,-9 122,99 97,227 -6,274 -62,22 -120,43 -187,57zm-347 -558c-286,138 -181,1356 43,1535 126,101 383,177 523,177 172,0 276,-34 405,-131 199,-150 211,-340 194,-562 -31,-384 -299,-238 -288,-438 38,-132 65,-157 30,-309 -29,-405 -688,-403 -907,-272zm1852 134c22,222 26,1338 7,1524 132,41 322,6 348,-149 -21,-461 53,-1032 17,-1434 -2,-23 -1,-55 -7,-99 -77,-6 -374,64 -365,158zm1317 1367c384,346 962,269 1180,-94 20,-93 20,-138 19,-232 0,-10 0,-132 0,-132 -7,-193 -71,-320 -284,-357 -86,-15 -231,-17 -327,-13 -46,3 -91,-12 -106,28 -9,280 184,259 383,263l-7 333c-6,118 -173,145 -260,161 -382,-28 -507,-375 -494,-671 19,-417 252,-695 721,-528 149,28 209,-106 127,-236 -384,-90 -647,-160 -988,157 -327,303 -314,1006 36,1321zm-2997 818c-237,27 -299,181 -329,383 -44,302 -17,726 31,1012 68,401 464,450 796,452 162,2 452,40 432,-308 -246,12 -592,59 -769,-87 -87,-96 -134,-308 -113,-465 337,-38 562,96 635,-312 -116,-12 -507,-11 -657,-7 -8,-88 -7,-245 10,-347 3,-16 23,-28 46,-32 96,-16 256,4 311,3 95,0 374,24 429,-43 23,-39 142,-304 65,-290 -184,34 -699,16 -887,41z"/>
  </g>
 </g>
</svg>
